<?xml version="1.0" encoding="utf-8"?>
<!-- Generator: Adobe Illustrator 24.0.2, SVG Export Plug-In . SVG Version: 6.00 Build 0)  -->
<svg version="1.1" id="Layer_5" xmlns="http://www.w3.org/2000/svg" xmlns:xlink="http://www.w3.org/1999/xlink" x="0px" y="0px"
	 viewBox="0 0 512 512" style="enable-background:new 0 0 512 512;" xml:space="preserve">
<style type="text/css">
	.st0{fill:#6600FF;}
</style>
<path class="st0" d="M463.6,332c10-8.8,16.4-21.7,16.4-36c0-26.5-21.5-48-48-48s-48,21.5-48,48c0,17.9,9.9,33.6,24.5,41.8
	c-15.9,10.2-27,27.3-28.6,47.2l-3.2,39H336c-13.2,0-24,10.8-24,24s10.8,24,24,24h32v32h136V390.2C504,363.6,487.2,340.9,463.6,332z
	 M432,264c17.6,0,32,14.4,32,32s-14.4,32-32,32s-32-14.4-32-32S414.4,264,432,264z M488,488H384v-16h2.8c20.8,0,38-15.6,39.8-36.4
	l5.4-58.9l-15.9-1.4l-5.4,58.9c-1.1,12.4-11.4,21.8-23.9,21.8H336c-4.4,0-8-3.6-8-8s3.6-8,8-8h40.7c8.3,0,15.2-6.3,15.9-14.6l3.2-39
	c2-23.7,22.2-42.3,46-42.3c25.4,0,46.2,20.7,46.2,46.2V488z"/>
<path class="st0" d="M176,424l-40.7,0.1l-3.2-39c-1.6-19.8-12.8-37-28.6-47.2c14.6-8.2,24.5-23.9,24.5-41.8c0-26.5-21.5-48-48-48
	s-48,21.5-48,48c0,14.4,6.4,27.2,16.4,36C24.8,340.9,8,363.6,8,390.2V504h136v-32h32c13.2,0,24-10.8,24-24S189.2,424,176,424
	L176,424z M80,264c17.6,0,32,14.4,32,32s-14.4,32-32,32s-32-14.4-32-32S62.4,264,80,264z M176,456h-50.8c-12.5,0-22.8-9.4-23.9-21.8
	L96,375.3L80,376.7l5.4,58.9c1.9,20.7,19,36.4,39.8,36.4h2.8v16H24v-97.8c0-25.4,20.7-46.2,46.2-46.2c23.8,0,44,18.6,46,42.3
	l3.2,39.1c0.8,8.3,7.6,14.6,15.9,14.6H176c4.4,0,8,3.6,8,8S180.4,456,176,456z"/>
<path class="st0" d="M328.7,297.3c0.8-1.8,1.6-3.6,2.3-5.5l21-5.7v-44.2l-21-5.7c-0.7-1.8-1.4-3.7-2.3-5.5l10.8-18.9L326.8,199
	c0.7-2.2,1.2-4.6,1.2-7c0-9.1-5.1-16.9-12.6-21L335,132c4.4-8.8,7.2-18.3,8.4-28h12.1l28.5,47.6l26.4-44c1.3-2.2,3.7-3.6,6.3-3.6
	c4,0,7.3,3.3,7.3,7.3V168h16v-56.7c0-12.9-10.5-23.3-23.3-23.3c-8.2,0-15.8,4.3-20,11.3L384,120.4L364.5,88h-20.8
	c-2.9-44.6-40.1-80-85.4-80h-4.7c-45.3,0-82.4,35.4-85.4,80h-20.8L128,120.4l-12.7-21.1c-4.2-7-11.9-11.3-20-11.3
	C82.5,88,72,98.5,72,111.3V168h16v-56.7c0-4,3.3-7.3,7.3-7.3c2.6,0,5,1.4,6.3,3.6l26.4,44l28.5-47.6h12.1c1.2,9.7,4,19.2,8.4,28
	l19.5,39.1c-7.4,4.1-12.6,11.9-12.6,21c0,2.5,0.5,4.8,1.2,7.1l-12.7,12.7l10.8,18.9c-0.8,1.8-1.6,3.6-2.3,5.5l-21,5.7v44.2l21,5.7
	c0.7,1.8,1.5,3.7,2.3,5.5l-10.8,18.9l31.3,31.3l18.9-10.8c1.8,0.8,3.6,1.6,5.5,2.3l5.7,21h44.2l5.7-21c1.8-0.7,3.7-1.5,5.5-2.3
	l18.9,10.8l31.3-31.3L328.7,297.3z M288,264c0,17.6-14.4,32-32,32s-32-14.4-32-32c0-3.1,0.5-6.2,1.3-9.2c8.8,5.8,19.3,9.2,30.7,9.2
	s21.8-3.4,30.6-9.2C287.5,257.8,288,260.9,288,264z M208,184h96c4.4,0,8,3.6,8,8s-3.6,8-8,8h-96c-4.4,0-8-3.6-8-8S203.6,184,208,184
	z M256,248c-19.3,0-35.5-13.8-39.2-32h78.4C291.5,234.2,275.3,248,256,248z M184,93.7c0-38.4,31.2-69.7,69.7-69.7h4.7
	c38.4,0,69.7,31.2,69.7,69.7c0,10.8-2.5,21.5-7.4,31.2L299.1,168H264v-41.1c13.8-3.6,24-16,24-30.9c0-17.6-14.4-32-32-32
	s-32,14.4-32,32c0,14.9,10.2,27.3,24,30.9V168h-35.1l-21.6-43.2C186.5,115.2,184,104.4,184,93.7z M256,112c-8.8,0-16-7.2-16-16
	s7.2-16,16-16s16,7.2,16,16S264.8,112,256,112z M305.6,327.6l-15.8-9l-3.9,2c-3.6,1.9-7.3,3.4-11,4.6l-4.2,1.3l-4.8,17.5h-19.8
	l-4.8-17.5l-4.2-1.3c-3.7-1.1-7.4-2.7-11-4.6l-3.9-2l-15.8,9l-14-14l9-15.8l-2-3.9c-1.9-3.6-3.4-7.3-4.6-11l-1.3-4.2l-17.5-4.8
	v-19.8l17.5-4.8l1.3-4.2c1.1-3.7,2.7-7.4,4.6-11l2-3.9l-9-15.8l2.4-2.4c1.7,1.1,3.6,2,5.6,2.6c1.3,10.8,5.7,20.7,12.2,28.8
	c-3,6.4-4.7,13.4-4.7,20.6c0,26.5,21.5,48,48,48s48-21.5,48-48c0-7.2-1.6-14.2-4.7-20.6c6.6-8,10.9-17.9,12.2-28.8
	c2-0.7,3.9-1.5,5.6-2.6l2.4,2.4l-9,15.8l2,3.9c1.9,3.6,3.4,7.3,4.6,11l1.3,4.2l17.5,4.8v19.8l-17.5,4.8l-1.3,4.2
	c-1.1,3.7-2.7,7.4-4.6,11l-2,3.9l9,15.8L305.6,327.6z"/>
<path class="st0" d="M424,216h16v16h-16V216z"/>
<path class="st0" d="M424,184h16v16h-16V184z"/>
<path class="st0" d="M72,216h16v16H72V216z"/>
<path class="st0" d="M72,184h16v16H72V184z"/>
</svg>
