<?xml version="1.0" encoding="utf-8"?>
<!-- Generator: Adobe Illustrator 24.0.2, SVG Export Plug-In . SVG Version: 6.00 Build 0)  -->
<svg version="1.1" id="Capa_1" xmlns="http://www.w3.org/2000/svg" xmlns:xlink="http://www.w3.org/1999/xlink" x="0px" y="0px"
	 viewBox="0 0 512 512" style="enable-background:new 0 0 512 512;" xml:space="preserve">
<style type="text/css">
	.st0{fill:#6600FF;}
</style>
<g>
	<path class="st0" d="M266.1,462.6c0,5.6-4.5,10.1-10.1,10.1c-5.6,0-10.1-4.5-10.1-10.1c0-5.6,4.5-10.1,10.1-10.1
		C261.6,452.5,266.1,457.1,266.1,462.6z M80.3,214.7c-5.6,0-10.1,4.5-10.1,10.1s4.5,10.1,10.1,10.1h20.5v100.8
		c0,5.6,4.5,10.1,10.1,10.1s10.1-4.5,10.1-10.1V234.8h20.5c5.6,0,10.1-4.5,10.1-10.1s-4.5-10.1-10.1-10.1H80.3z M429.4,136.1
		c23.3,0,42.3,19,42.3,42.3s-19,42.3-42.3,42.3c-23.3,0-42.3-19-42.3-42.3S406,136.1,429.4,136.1z M407.2,178.4
		c0,12.2,9.9,22.2,22.2,22.2s22.2-9.9,22.2-22.2s-9.9-22.2-22.2-22.2S407.2,166.2,407.2,178.4z M401.1,472.7h-99.8
		c-5.8,0-10.4-4.9-10.1-10.8c0.4-5.4,5-9.4,10.4-9.4h89.3v-20.2h-74.6c-16.7,0-30.2-13.5-30.2-30.2v-26.2
		c0-16.7,13.5-30.2,30.2-30.2h74.6v-42.3H252c-5.6,0-10.1-4.5-10.1-10.1V105.8c0-5.6,4.5-10.1,10.1-10.1h139.1V69.5
		c0-5.6-4.5-10.1-10.1-10.1H131c-5.6,0-10.1,4.5-10.1,10.1v99.8h90.7c5.6,0,10.1,4.5,10.1,10.1V381c0,5.6-4.5,10.1-10.1,10.1h-90.7
		v61.5h89.3c5.4,0,10.1,4,10.4,9.4c0.4,5.9-4.3,10.8-10.1,10.8h-99.8c-5.6,0-10.1-4.5-10.1-10.1v-71.6H10.1C4.5,391.1,0,386.5,0,381
		V179.4c0-5.6,4.5-10.1,10.1-10.1h90.7V69.5c0-16.7,13.5-30.2,30.2-30.2h250c16.7,0,30.2,13.5,30.2,30.2v26.2h90.7
		c5.6,0,10.1,4.5,10.1,10.1v187.5c0,5.6-4.5,10.1-10.1,10.1h-90.7v42.3h26.2c16.7,0,30.2,13.5,30.2,30.2v26.2
		c0,16.7-13.5,30.2-30.2,30.2h-26.2v30.2C411.2,468.2,406.7,472.7,401.1,472.7z M201.6,189.5H20.2v181.4h181.4V189.5z M437.4,365.9
		H316.5c-5.6,0-10.1,4.5-10.1,10.1v26.2c0,5.6,4.5,10.1,10.1,10.1h120.9c5.6,0,10.1-4.5,10.1-10.1v-26.2
		C447.5,370.4,443,365.9,437.4,365.9z M262,283.2h156.1l-93-87c-11.6-10.8-29.7-10.8-41.3,0L262,216.6L262,283.2z M491.8,115.9H262
		V189l8-7.5c19.3-18,49.5-18,68.8,0l108.8,101.7h44.2V115.9z"/>
</g>
</svg>
