<?xml version="1.0" encoding="utf-8"?>
<!-- Generator: Adobe Illustrator 24.0.2, SVG Export Plug-In . SVG Version: 6.00 Build 0)  -->
<svg version="1.1" id="Layer_1" xmlns="http://www.w3.org/2000/svg" xmlns:xlink="http://www.w3.org/1999/xlink" x="0px" y="0px"
	 viewBox="0 0 512 512" style="enable-background:new 0 0 512 512;" xml:space="preserve">
<style type="text/css">
	.st0{fill:#6600FF;}
</style>
<path class="st0" d="M496.4,0H67.7c-8.6,0-15.6,7-15.6,15.6v276.2H15.6c-8.6,0-15.6,7-15.6,15.6v188.9C0,505,7,512,15.6,512h188.9
	c8.6,0,15.6-7,15.6-15.6v-36.5h276.2c8.6,0,15.6-7,15.6-15.6V15.6C512,7,505,0,496.4,0z M188.9,480.8H31.2V323.1h135.6l-72.6,72.6
	c-6.1,6.1-6.1,16,0,22.1c6.1,6.1,16,6.1,22.1,0l72.6-72.6V480.8z M480.8,428.6H220.1V313.9l121.7-121.7v62.5c0,8.6,7,15.6,15.6,15.6
	c8.6,0,15.6-7,15.6-15.6V154.5c0-8.9-7.3-15.6-15.6-15.6H257.3c-8.6,0-15.6,7-15.6,15.6c0,8.6,7,15.6,15.6,15.6h62.5L198.1,291.9
	H83.4V31.2h397.4V428.6z"/>
</svg>
