<?xml version="1.0" encoding="utf-8"?>
<!-- Generator: Adobe Illustrator 24.0.2, SVG Export Plug-In . SVG Version: 6.00 Build 0)  -->
<svg version="1.1" id="Capa_1" xmlns="http://www.w3.org/2000/svg" xmlns:xlink="http://www.w3.org/1999/xlink" x="0px" y="0px"
	 viewBox="0 0 34.9 34.9" style="enable-background:new 0 0 34.9 34.9;" xml:space="preserve">
<style type="text/css">
	.st0{fill:#6600FF;}
</style>
<g>
	<g>
		<path class="st0" d="M32.4,33.7c0-1.4-1.6-3.3-3.8-3.8c0.9-0.6,1.5-1.8,1.5-2.9c0-1.5-1.2-2.8-2.8-2.8c-1.5,0-2.8,1.2-2.8,2.8
			c0,1.1,0.6,2.3,1.5,2.9c-2.2,0.6-3.8,2.4-3.8,3.8C22.4,35.3,32.4,35.3,32.4,33.7z"/>
		<path class="st0" d="M9,6.3c1.2,0,2.2-1.4,2.2-2.7c0-1.2-1-2.2-2.2-2.2c-1.2,0-2.3,1-2.3,2.2C6.8,4.8,7.8,6.3,9,6.3z"/>
		<path class="st0" d="M32.6,12.9V3.4c0-0.9-0.7-1.6-1.6-1.6h-6.1V0.6c0-0.3-0.3-0.6-0.6-0.6s-0.6,0.3-0.6,0.6v1.2h-6.1
			c-0.9,0-1.6,0.7-1.6,1.6v4.9l-3.1-1c-0.2-0.1-1.9-0.7-3.5-0.8L9.1,6.9h0l0.6,4.7L9,12.8l-0.7-1.2l0.6-4.7h0L8.7,6.5
			C7,6.6,5.2,7.2,5.2,7.2c0,0-0.1,0-0.1,0.1C5,7.3,5,7.3,4.9,7.4c0,0-0.1,0.1-0.1,0.1c0,0-0.1,0.1-0.1,0.1c0,0.1-0.1,0.1-0.1,0.2
			c0,0,0,0.1,0,0.1l-1.4,6.4c-0.1,0.5,0.2,1,0.7,1.1c0.1,0,0.1,0,0.2,0c0.4,0,0.8-0.3,0.9-0.7l1.3-5.9c0.1,0,0.2-0.1,0.3-0.1v6.1
			l-0.7,8.8c0,0.3,0.1,0.6,0.4,0.9c-1,0.4-1.6,1.4-1.6,2.5c0,1.1,0.6,2.3,1.5,2.9c-2.2,0.6-3.8,2.4-3.8,3.8c0,1.7,10,1.7,10,0
			c0-1.4-1.6-3.3-3.8-3.8c0.9-0.6,1.5-1.8,1.5-2.9c0-1.4-1-2.5-2.3-2.7C7.9,24,7.9,23.9,8,23.7l0.6-8c0.1,0.1,0.3,0.1,0.4,0.1
			c0.2,0,0.3,0,0.4-0.1l0.6,8c0,0.6,0.5,1,1.1,1c0,0,0.1,0,0.1,0c0.6,0,1-0.6,1-1.1l-0.7-8.8V8.7c0.5,0.1,0.8,0.2,0.8,0.2
			c0,0,0,0,0,0c0,0,0,0,0,0l3.6,1.2v2.8c0,0.9,0.7,1.6,1.6,1.6h2.9l-2.5,9.5c0,0.1,0,0.2,0,0.3c-0.2,0-0.3-0.1-0.5-0.1
			c-1.5,0-2.8,1.2-2.8,2.8c0,1.1,0.6,2.3,1.5,2.9c-2.2,0.6-3.8,2.4-3.8,3.8c0,1.7,10,1.7,10,0c0-1.4-1.6-3.3-3.8-3.8
			c0.9-0.6,1.5-1.8,1.5-2.9c0-1-0.5-1.9-1.3-2.4c0.1-0.1,0.2-0.2,0.2-0.3l2.6-9.8h2v6.9c0,0.3,0.3,0.6,0.6,0.6s0.6-0.3,0.6-0.6v-6.9
			h2l2.6,9.8c0.1,0.3,0.3,0.4,0.6,0.4c0.1,0,0.1,0,0.2,0c0.3-0.1,0.5-0.4,0.4-0.7l-2.5-9.5H31C31.9,14.5,32.6,13.8,32.6,12.9z
			 M17.5,13.7c-0.4,0-0.8-0.4-0.8-0.8v-2.5c0,0,0.1,0,0.1,0c0.4,0,0.7-0.2,0.8-0.6c0.2-0.5-0.1-1-0.6-1.1l-0.4-0.1V3.4
			c0-0.4,0.4-0.8,0.8-0.8H31c0.4,0,0.8,0.4,0.8,0.8v9.5c0,0.4-0.4,0.8-0.8,0.8C31,13.7,17.5,13.7,17.5,13.7z"/>
	</g>
</g>
</svg>
