<?xml version="1.0" encoding="utf-8"?>
<!-- Generator: Adobe Illustrator 24.0.2, SVG Export Plug-In . SVG Version: 6.00 Build 0)  -->
<svg version="1.1" id="Capa_1" xmlns="http://www.w3.org/2000/svg" xmlns:xlink="http://www.w3.org/1999/xlink" x="0px" y="0px"
	 viewBox="0 0 512 512" style="enable-background:new 0 0 512 512;" xml:space="preserve">
<style type="text/css">
	.st0{fill:#6600FF;}
</style>
<g>
	<path class="st0" d="M492.8,24.9h-102V7.5c0-4.1-3.4-7.5-7.5-7.5H125.1c-4.1,0-7.5,3.4-7.5,7.5v17.4H19.2c-4.1,0-7.5,3.4-7.5,7.5
		l0,196.8c0,4.1,3.4,7.5,7.5,7.5h98.4v54.8c0,4.1,3.4,7.5,7.5,7.5H148c-1.5,2.8-2.5,6-2.8,9.3l-9.9,85.4c-0.3,2.4-0.4,4.9-0.4,7.2
		c0,19.3,9.8,35.1,24,47.3c8.3,7.2,16.6,14.3,25,21.5v34.8c0,4.1,3.4,7.5,7.5,7.5h23.1c4.1,0,7.5-3.4,7.5-7.5s-3.4-7.5-7.5-7.5
		h-15.6v-30.8c0-2.2-1-4.3-2.6-5.7c-8.2-7.1-16.4-14.1-24.6-21.2c-12-10.4-21.4-21.7-21.7-38.6c0-1.8,0.1-3.6,0.3-5.4l9.9-85.4
		c0.7-6,5.8-10.5,11.9-10.5c4,0,7.3,2.2,8.9,4.1c2.7,3.1,3,6.5,3,7.9v63.2c0,4.1,3.4,7.5,7.5,7.5s7.5-3.4,7.5-7.5V171.4
		c0-6.6,5.3-11.9,11.9-11.9c6.6,0,11.9,5.3,11.9,11.9c0,0,0,0,0,0.1c0,0,0,0.1,0,0.1v94.8c0,11.5,15.1,11.4,15.1,0.1
		c0-1.6,0-6.4,0-7.7c1.3-15.3,26.9-14.9,26.9,0.8v11.4c0,9.7,15,9.7,15,0c0-6.6,5.4-11.9,11.9-11.9c7.5,0,15,3.2,15,11.9v7.4
		c0,9.6,14.8,9.7,15,0.1c0-1.6,0.1-1.9,0.4-3.1c3-11.7,20.4-11.8,23.4-0.1l9.3,35.6c6.7,25.8,6.4,53-0.8,78.6l-21,74.7
		c-0.2,0.7-0.3,1.3-0.3,2V497h-82.4c-4.1,0-7.5,3.4-7.5,7.5s3.4,7.5,7.5,7.5h89.9c4.1,0,7.5-3.4,7.5-7.5v-37.2l20.7-73.7
		c7.9-28.2,8.2-58.1,0.9-86.4l-2.1-8.2h16.2c4.1,0,7.5-3.4,7.5-7.5V70.3h94.5v151.4h-66.7c-4.1,0-7.5,3.4-7.5,7.5s3.4,7.5,7.5,7.5
		h74.2c4.1,0,7.5-3.4,7.5-7.5V32.4v0C500.3,28.3,497,24.9,492.8,24.9L492.8,24.9z M26.7,39.9h90.9v15.4H26.7V39.9z M132.6,15h243.2
		v40.3H132.6L132.6,15z M26.7,221.7V70.3h90.9v151.4H26.7z M363.2,284l-3.2-12.5c-4.7-18.2-27.3-26.1-42.4-14.9
		c-8.2-13.1-27.5-16.7-40.4-8.5c-6.7-14.4-25.6-19.7-39.5-12.7v-56.5h68.2c4,0,7.3,3.3,7.3,7.3v14.4c0,4-3.3,7.3-7.3,7.3h-41.1
		c-4.1,0-7.5,3.4-7.5,7.5s3.4,7.5,7.5,7.5h41.1c12.3,0,22.3-10,22.3-22.3v-14.4c0-12.3-10-22.3-22.3-22.3h-69.3
		c-3.3-11.2-13.6-19.4-25.8-19.4c-14.8,0-26.9,12.1-26.9,26.9V284h-51.2V70.3h243.2V284H363.2z M390.8,55.3V39.9h94.5v15.4H390.8z"
		/>
	<path class="st0" d="M297.7,28h-87c-4.1,0-7.5,3.4-7.5,7.5s3.4,7.5,7.5,7.5h87c4.1,0,7.5-3.4,7.5-7.5S301.8,28,297.7,28z"/>
	<path class="st0" d="M223.3,84.7h-59.2c-4.1,0-7.5,3.4-7.5,7.5v34.3c0,4.1,3.4,7.5,7.5,7.5h59.2c4.1,0,7.5-3.4,7.5-7.5V92.2
		C230.8,88.1,227.5,84.7,223.3,84.7z M215.8,119h-44.2V99.7h44.2V119z"/>
	<path class="st0" d="M413.4,124.7h44.6c4.1,0,7.5-3.4,7.5-7.5s-3.4-7.5-7.5-7.5h-44.6c-4.1,0-7.5,3.4-7.5,7.5
		S409.2,124.7,413.4,124.7z"/>
	<path class="st0" d="M457.9,157c4.1,0,7.5-3.4,7.5-7.5s-3.4-7.5-7.5-7.5h-44.6c-4.1,0-7.5,3.4-7.5,7.5s3.4,7.5,7.5,7.5H457.9z"/>
	<path class="st0" d="M49.4,124.7H94c4.1,0,7.5-3.4,7.5-7.5s-3.4-7.5-7.5-7.5H49.4c-4.1,0-7.5,3.4-7.5,7.5S45.3,124.7,49.4,124.7z"
		/>
	<path class="st0" d="M94,142H49.4c-4.1,0-7.5,3.4-7.5,7.5s3.4,7.5,7.5,7.5H94c4.1,0,7.5-3.4,7.5-7.5S98.1,142,94,142z"/>
	<path class="st0" d="M340.2,101.9h-79.6c-4.1,0-7.5,3.4-7.5,7.5s3.4,7.5,7.5,7.5h79.6c4.1,0,7.5-3.4,7.5-7.5
		S344.3,101.9,340.2,101.9z"/>
</g>
</svg>
